<svg xmlns="http://www.w3.org/2000/svg" width="1280" height="720" overflow="hidden">
  <defs/>
  <defs>
    <clipPath id="a">
      <path d="M0 0h1280v720H0z"/>
    </clipPath>
  </defs>
  <g clip-path="url(#a)">
    <path fill="#FFF" d="M0 0h1280v720H0z"/>
    <path fill="#FFF" stroke="#70AD47" stroke-miterlimit="8" stroke-width="1.3" d="M311 512h250v37H311z"/>
    <text font-family="Calibri,Calibri_MSFontService,sans-serif" font-size="24" font-weight="400" transform="translate(340 537)">
      Hypercore-<tspan x="109" y="0">Protocol</tspan>
    </text>
    <path fill="#FFF" stroke="#70AD47" stroke-miterlimit="8" stroke-width="1.3" d="M311 474h250v38H311z"/>
    <text font-family="Calibri,Calibri_MSFontService,sans-serif" font-size="24" font-weight="400" transform="translate(354 499)">
      Kappa<tspan x="60" y="0">-</tspan><tspan x="68" y="0">multifeed</tspan>
    </text>
    <path fill="#FFF" stroke="#70AD47" stroke-miterlimit="8" stroke-width="1.3" d="M311 436h250v38H311z"/>
    <text font-family="Calibri,Calibri_MSFontService,sans-serif" font-size="24" font-weight="400" transform="translate(403 461)">
      HyPNS
    </text>
    <path fill="#FFF" stroke="#70AD47" stroke-miterlimit="8" stroke-width="1.3" d="M311 398h366v38H311z"/>
    <text font-family="Calibri,Calibri_MSFontService,sans-serif" font-size="24" font-weight="400" transform="translate(366 423)">
      HyPNS<tspan x="65" y="0">-</tspan><tspan x="72" y="0">Svelte</tspan>-<tspan x="138" y="0">Component</tspan>
    </text>
    <path fill="#FFF" stroke="#70AD47" stroke-miterlimit="8" stroke-width="1.3" d="M561 436h200v38H561z"/>
    <text font-family="Calibri,Calibri_MSFontService,sans-serif" font-size="24" font-weight="400" transform="translate(630 461)">
      Svelte
    </text>
    <path fill="#FFF" stroke="#70AD47" stroke-miterlimit="8" stroke-width="1.3" d="M163 398h148v38H163z"/>
    <text font-family="Calibri,Calibri_MSFontService,sans-serif" font-size="24" font-weight="400" transform="translate(177 423)">
      js-<tspan x="22" y="0">did</tspan><tspan x="53" y="0">-</tspan><tspan x="61" y="0">hypns</tspan>
    </text>
    <path fill="#FFF" stroke="#70AD47" stroke-miterlimit="8" stroke-width="1.3" d="M761 436h165v113H761z"/>
    <text font-family="Calibri,Calibri_MSFontService,sans-serif" font-size="24" font-weight="400" transform="translate(800 499)">
      Ipfs<tspan x="35" y="0">-</tspan><tspan x="42" y="0">core</tspan>
    </text>
    <path fill="#FFF" stroke="#70AD47" stroke-miterlimit="8" stroke-width="1.3" d="M677 398h249v38H677z"/>
    <text font-family="Calibri,Calibri_MSFontService,sans-serif" font-size="24" font-weight="400" transform="translate(719 423)">
      IPFS<tspan x="40" y="0">-</tspan><tspan x="47" y="0">Component</tspan>
    </text>
    <path fill="#FFF" stroke="#70AD47" stroke-miterlimit="8" stroke-width="1.3" d="M926 398h97v37h-97z"/>
    <text font-family="Calibri,Calibri_MSFontService,sans-serif" font-size="24" font-weight="400" transform="translate(943 423)">
      Vercel
    </text>
    <path fill="#FFF" stroke="#70AD47" stroke-miterlimit="8" stroke-width="1.3" d="M1023 397h97v38h-97z"/>
    <text font-family="Calibri,Calibri_MSFontService,sans-serif" font-size="24" font-weight="400" transform="translate(1041 423)">
      Fauna
    </text>
    <path fill="#FFF" stroke="#70AD47" stroke-miterlimit="8" stroke-width="1.3" d="M163 360h957v38H163z"/>
    <text font-family="Calibri,Calibri_MSFontService,sans-serif" font-size="24" font-weight="400" transform="translate(582 385)">
      PeerPiper.io
    </text>
  </g>
</svg>
